<svg width="16" height="16" viewBox="0 0 16 16" fill="none" xmlns="http://www.w3.org/2000/svg">
<path d="M15.7055 13.6442C16.0982 14.0368 16.0982 14.6258 15.7055 15.0184L15.0184 15.7055C14.6258 16.0982 14.0368 16.0982 13.6442 15.7055L8 10.0613L2.35583 15.7055C1.96319 16.0982 1.37423 16.0982 0.981595 15.7055L0.294479 15.0184C-0.0981595 14.6258 -0.0981595 14.0368 0.294479 13.6442L5.93865 8L0.294479 2.35583C-0.0981595 1.96319 -0.0981595 1.37423 0.294479 0.981595L0.981595 0.294479C1.37423 -0.0981595 1.96319 -0.0981595 2.35583 0.294479L8 5.93865L13.6442 0.294479C14.0368 -0.0981595 14.6258 -0.0981595 15.0184 0.294479L15.7055 0.981595C16.0982 1.37423 16.0982 1.96319 15.7055 2.35583L10.0613 8L15.7055 13.6442Z" fill="black"/>
</svg>
