<svg width="18" height="18" viewBox="0 0 18 18" fill="none" xmlns="http://www.w3.org/2000/svg">
<path fill-rule="evenodd" clip-rule="evenodd" d="M9.86266 3.09453C12.4679 3.47219 14.5278 5.53212 14.9055 8.13734H17.1443C18.2852 8.13734 18.2852 9.86266 17.1443 9.86266H14.9055C14.5278 12.4679 12.4685 14.5278 9.86266 14.9055V17.1443C9.86266 18.2852 8.13734 18.2852 8.13734 17.1443V14.9055C5.53212 14.5278 3.47219 12.4679 3.09453 9.86266H0.855707C-0.285236 9.86266 -0.285236 8.13734 0.855707 8.13734H3.09453C3.47219 5.53212 5.53212 3.47219 8.13734 3.09453V0.855707C8.13734 -0.285236 9.86266 -0.285236 9.86266 0.855707V3.09453V3.09453ZM9 11.2342C10.2304 11.2342 11.2342 10.2304 11.2342 9C11.2342 7.76961 10.2304 6.76582 9 6.76582C7.76961 6.76582 6.76582 7.76961 6.76582 9C6.76582 10.2304 7.76961 11.2342 9 11.2342ZM9 13.1013C11.2587 13.1013 13.1006 11.2594 13.1006 9.00066C13.1006 6.74197 11.2587 4.90003 9 4.90003C6.7413 4.90003 4.89936 6.74197 4.89936 9.00066C4.89936 11.2594 6.7413 13.1013 9 13.1013V13.1013Z" fill="#005DFF"/>
</svg>
