<svg width="24" height="24" viewBox="0 0 24 24" fill="none" xmlns="http://www.w3.org/2000/svg">
<path fill-rule="evenodd" clip-rule="evenodd" d="M9.81818 10.9091H4.36364C1.95367 10.9091 0 8.95542 0 6.54545V1.09091C0 0.488417 0.488417 0 1.09091 0H6.54545C8.95542 0 10.9091 1.95367 10.9091 4.36364V9.81818C10.9091 10.4207 10.4207 10.9091 9.81818 10.9091ZM6.54545 2.18182H2.18182V6.54545C2.18182 7.75044 3.15865 8.72727 4.36364 8.72727H8.72727V4.36364C8.72727 3.15865 7.75044 2.18182 6.54545 2.18182ZM14.1818 10.9091H19.6364C22.0463 10.9091 24 8.95542 24 6.54545V1.09091C24 0.488417 23.5116 0 22.9091 0H17.4545C15.0446 0 13.0909 1.95367 13.0909 4.36364V9.81818C13.0909 10.4207 13.5793 10.9091 14.1818 10.9091ZM17.4545 2.18182C16.2496 2.18182 15.2727 3.15865 15.2727 4.36364V8.72727H19.6364C20.8413 8.72727 21.8182 7.75044 21.8182 6.54545V2.18182H17.4545ZM17.4545 24H22.9091C23.5116 24 24 23.5116 24 22.9091V17.4545C24 15.0446 22.0463 13.0909 19.6364 13.0909H14.1818C13.5793 13.0909 13.0909 13.5793 13.0909 14.1818V19.6364C13.0909 22.0463 15.0446 24 17.4545 24ZM19.6364 15.2727H15.2727V19.6364C15.2727 20.8413 16.2496 21.8182 17.4545 21.8182H21.8182V17.4545C21.8182 16.2496 20.8413 15.2727 19.6364 15.2727ZM1.09091 24H6.54545C8.95542 24 10.9091 22.0463 10.9091 19.6364V14.1818C10.9091 13.5793 10.4207 13.0909 9.81818 13.0909H4.36364C1.95367 13.0909 0 15.0446 0 17.4545V22.9091C0 23.5116 0.488417 24 1.09091 24ZM4.36364 15.2727C3.15865 15.2727 2.18182 16.2496 2.18182 17.4545V21.8182H6.54545C7.75044 21.8182 8.72727 20.8413 8.72727 19.6364V15.2727H4.36364Z" fill="#071527"/>
</svg>
